# xmcd
#
# Track frame offsets: 
#        150
#        10037
#        32550
#        54116
#        69990
#        104672
#        126095
#        139959
#        163366
#        186069
#        210696
#        235297
#        259623
#
# Disc length: 4174 seconds
#
# Revision: 2
# Processed by: cddbd v1.5.2PL0 Copyright (c) Steve Scherf et al.
# Submitted via: ExactAudioCopy v1.2
#
DISCID=b3104c0d
DTITLE=Epica - The Quantum Enigma
DYEAR=2014
DGENRE=Symphonic Metal
TTITLE0=Originem
TTITLE1=The Second Stone
TTITLE2=The Essence Of Silence
TTITLE3=Victims Of Contingency
TTITLE4=Sense Without Sanity (The Impervious Code)
TTITLE5=Unchain Utopia
TTITLE6=The Fifth Guardian (Interlude)
TTITLE7=Chemical Insomnia
TTITLE8=Reverence (Living In The Heart)
TTITLE9=Omen (The Ghoulish Malady)
TTITLE10=Canvas Of Life
TTITLE11=Natural Corruption
TTITLE12=The Quantum Enigma (Kingdom Of Heaven - Part II)
EXTD=
EXTT0=
EXTT1=
EXTT2=
EXTT3=
EXTT4=
EXTT5=
EXTT6=
EXTT7=
EXTT8=
EXTT9=
EXTT10=
EXTT11=
EXTT12=
PLAYORDER=
